<svg version="1.1" viewBox="0 0 1025 1024" width="1025" height="1024" xmlns="http://www.w3.org/2000/svg">
<path transform="translate(488)" d="m0 0h48l37 3 33 5 36 8 27 8 29 10 30 13 32 16 28 17 18 12 19 14 16 13 14 12 16 15 17 17 7 8 9 10 11 14 14 18 18 27 9 15 10 18 8 15 12 27 11 29 8 25 9 36 5 27 4 32 2 31v34l-2 31-4 32-7 36-9 34-11 32-13 31-17 34-13 22-18 27-12 16-11 14-13 15-12 13-24 24-8 7-14 12-13 10-19 14-20 13-20 12-26 14-24 11-28 11-27 9-30 8-36 7-30 4-28 2h-48l-36-3-33-5-28-6-26-7-33-11-29-12-31-15-23-13-22-14-18-13-12-9-11-9-13-11-12-11-7-7-7-6-7-8-9-9-9-11-12-14-12-16-14-20-13-21-14-25-11-22-13-31-12-36-7-26-6-28-5-33-3-36v-48l3-36 5-33 6-28 7-26 11-33 12-29 15-31 14-24 13-21 13-18 10-13 9-11 11-13 12-13 26-26 8-7 13-11 17-13 15-11 15-10 25-15 26-14 24-11 28-11 27-9 34-9 31-6 31-4z" fill="#ECE8FC"/>
<path transform="translate(389,195)" d="m0 0h1v169h131l-2 5-10 13-8 11-9 12-10 13-14 19-27 36-2 2h-47l-1 1v197l2 18 4 10 2 6h2l5 6 9 6 11 3h28l25-3 19-4 10-3 6-2v111l-9 4-19 6-29 7-17 3-17 2h-31l-23-3-21-5-16-6-17-9-11-8-10-9-12-12-12-17-8-16-7-17-5-20-2-17v-230h-65v-104l73-12 21-4 3-3 21-31 14-20 10-14 11-15 13-19 13-18 12-17 14-21z"/>
<path transform="translate(699,193)" d="m0 0h2l-1 171h123l1 1v109l-2 1h-122l1 201 2 16 3 9 8 11 10 6 10 3 9 1h27l26-4 21-6 4-2h3v110l-5 3-31 10-25 6-23 3-14 1h-17l-25-2-22-5-15-5-21-11-15-11-13-12-7-8-10-15-8-14-6-15-6-23-3-22-1-69 1-156h-60l2-5 8-10 14-19 10-13 8-11 14-19 12-17 9-12 11-13 7-11 24-34 42-60 10-14 16-24 13-19z"/>
<path transform="translate(588,192)" d="m0 0h113l-6 8-19 28-11 16-12 17-14 20-12 17-16 23-13 18-10 15-1-4v-83z" fill="#AD61CA"/>
<path transform="translate(280,191)" d="m0 0h55l55 1 1 1v47h-1l-1-44-21 31-13 18-14 20-10 14-6 8-9 13-21 30-12 18-4 5v-161z" fill="#AD61CA"/>
</svg>