<svg width="33" height="33" viewBox="0 0 33 33" fill="none" xmlns="http://www.w3.org/2000/svg">
<g id="Interface / Instance">
<path id="Vector" d="M19.6114 27.9729L27.9729 19.6114C29.062 18.5224 29.6063 17.9774 29.8104 17.3495C29.9898 16.7972 29.9898 16.2034 29.8104 15.651C29.6063 15.0231 29.062 14.4774 27.9729 13.3884L19.6096 5.02502C18.5217 3.93721 17.9777 3.39318 17.3502 3.18928C16.7979 3.00982 16.2027 3.00982 15.6504 3.18928C15.0227 3.39322 14.4772 3.93873 13.3891 5.02687L5.02754 13.3884L5.02688 13.3897C3.93828 14.4783 3.39326 15.0233 3.18928 15.651C3.00982 16.2034 3.00982 16.7972 3.18928 17.3495C3.39318 17.977 3.93788 18.5217 5.0257 19.6096L13.3943 27.9781C14.4798 29.0637 15.0235 29.6073 15.6504 29.811C16.2027 29.9905 16.7979 29.9905 17.3502 29.811C17.9778 29.6071 18.522 29.063 19.6102 27.9747L19.6114 27.9729Z" stroke="#D3D3D3" stroke-width="2" stroke-linecap="round" stroke-linejoin="round"/>
</g>
</svg>
