<svg width="38" height="38" viewBox="0 0 38 38" fill="none" xmlns="http://www.w3.org/2000/svg">
<circle opacity="0.8" cx="19" cy="19" r="19" fill="url(#paint0_linear_65_521)"/>
<path d="M19.3369 19.3198H16.5977L16.583 17.811H18.8828C19.2881 17.811 19.6201 17.7598 19.8789 17.6572C20.1377 17.5498 20.3306 17.396 20.4575 17.1958C20.5894 16.9907 20.6553 16.7417 20.6553 16.4487C20.6553 16.1167 20.5918 15.8481 20.4648 15.6431C20.3428 15.438 20.1499 15.2891 19.8862 15.1963C19.6274 15.1035 19.293 15.0571 18.8828 15.0571H17.3594V24H15.1621V13.3359H18.8828C19.5029 13.3359 20.0571 13.3945 20.5454 13.5117C21.0386 13.6289 21.4561 13.8071 21.7979 14.0464C22.1396 14.2856 22.4009 14.5884 22.5815 14.9546C22.7622 15.3159 22.8525 15.7456 22.8525 16.2437C22.8525 16.6831 22.7524 17.0884 22.5522 17.4595C22.3569 17.8306 22.0469 18.1333 21.6221 18.3677C21.2021 18.6021 20.6528 18.7314 19.9741 18.7559L19.3369 19.3198ZM19.2417 24H15.9971L16.854 22.2861H19.2417C19.6274 22.2861 19.9424 22.2251 20.1865 22.103C20.4307 21.9761 20.6113 21.8052 20.7285 21.5903C20.8457 21.3755 20.9043 21.1289 20.9043 20.8506C20.9043 20.5381 20.8506 20.2671 20.7432 20.0376C20.6406 19.8081 20.4746 19.6323 20.2451 19.5103C20.0156 19.3833 19.7129 19.3198 19.3369 19.3198H17.2202L17.2349 17.811H19.8716L20.377 18.4043C21.0264 18.3945 21.5488 18.5093 21.9443 18.7485C22.3447 18.9829 22.6353 19.2881 22.8159 19.6641C23.0015 20.04 23.0942 20.4429 23.0942 20.8726C23.0942 21.5562 22.9453 22.1323 22.6475 22.6011C22.3496 23.0649 21.9126 23.4141 21.3364 23.6484C20.7651 23.8828 20.0669 24 19.2417 24Z" fill="white"/>
<defs>
<linearGradient id="paint0_linear_65_521" x1="-14.7312" y1="20.0565" x2="17.31" y2="54.0206" gradientUnits="userSpaceOnUse">
<stop stop-color="#FF409A"/>
<stop offset="1" stop-color="#C438EF"/>
</linearGradient>
</defs>
</svg>
