<svg width="33" height="33" viewBox="0 0 33 33" fill="none" xmlns="http://www.w3.org/2000/svg">
<g id="Interface / Credit_Card_01">
<path id="Vector" d="M4.125 15.125V21.7253C4.125 23.2654 4.125 24.0351 4.42473 24.6233C4.68838 25.1408 5.10877 25.5619 5.62622 25.8256C6.2139 26.125 6.98362 26.125 8.52075 26.125H24.4792C26.0164 26.125 26.785 26.125 27.3727 25.8256C27.8901 25.5619 28.3119 25.1408 28.5756 24.6233C28.875 24.0357 28.875 23.2671 28.875 21.7299V15.125M4.125 15.125V12.375M4.125 15.125H28.875M4.125 12.375V11.2753C4.125 9.73512 4.125 8.96448 4.42473 8.37622C4.68838 7.85877 5.10877 7.43838 5.62622 7.17473C6.21448 6.875 6.98512 6.875 8.52527 6.875H24.4753C26.0154 6.875 26.7844 6.875 27.3727 7.17473C27.8901 7.43838 28.3119 7.85877 28.5756 8.37622C28.875 8.9639 28.875 9.73362 28.875 11.2708V12.375M4.125 12.375H28.875M9.625 20.625H15.125M28.875 15.125V12.375" stroke="#D3D3D3" stroke-width="2" stroke-linecap="round" stroke-linejoin="round"/>
</g>
</svg>
