<svg width="33" height="33" viewBox="0 0 33 33" fill="none" xmlns="http://www.w3.org/2000/svg">
<g id="Interface / Chart_Bar_Vertical_01">
<path id="Vector" d="M12.375 15.125V27.5M12.375 15.125H6.32446C5.55439 15.125 5.16974 15.125 4.87561 15.2749C4.61689 15.4067 4.40669 15.6169 4.27487 15.8756C4.125 16.1697 4.125 16.5551 4.125 17.3251V27.5H12.375M12.375 15.125V7.70013C12.375 6.93006 12.375 6.54474 12.5249 6.25061C12.6567 5.99189 12.8669 5.78169 13.1256 5.64987C13.4197 5.5 13.8044 5.5 14.5745 5.5H18.4245C19.1945 5.5 19.5804 5.5 19.8745 5.64987C20.1332 5.78169 20.3428 5.99189 20.4746 6.25061C20.6245 6.54474 20.625 6.93006 20.625 7.70013V11M12.375 27.5H20.625M20.625 27.5L28.875 27.5001V13.2001C28.875 12.4301 28.8745 12.0447 28.7246 11.7506C28.5928 11.4919 28.384 11.2817 28.1253 11.1499C27.8312 11 27.4451 11 26.675 11H20.625M20.625 27.5V11" stroke="#D3D3D3" stroke-width="2" stroke-linecap="round" stroke-linejoin="round"/>
</g>
</svg>
