<svg width="155" height="95" viewBox="0 0 155 95" fill="none" xmlns="http://www.w3.org/2000/svg">
<path fill-rule="evenodd" clip-rule="evenodd" d="M29.5548 -76.4473C26.9903 -66.4143 24.2268 -53.1079 26.9964 -41.4952C27.9031 -37.6937 29.4031 -34.0713 31.6969 -30.8048C32.4454 -28.1308 33.5068 -25.5583 34.9533 -23.151L34.9715 -23.0735L34.9973 -22.9644C35.5358 -20.7068 36.2835 -18.5124 37.2824 -16.4182C37.4229 -15.6011 37.5878 -14.7904 37.7793 -13.9878C37.8998 -13.4822 38.0309 -12.9798 38.173 -12.4809C36.1048 -3.31003 34.5555 7.57648 36.8699 17.2803C38.2571 23.0965 41.0332 28.4933 45.9161 32.8378C50.7968 37.1804 57.763 40.4543 67.504 42.0622C90.1962 45.8077 105.548 37.5985 117.327 31.2995C118.421 30.7145 119.485 30.146 120.52 29.6051C126.631 26.4121 131.709 24.2194 136.446 25.1399C141.157 26.0553 145.629 30.0776 150.453 39.6165L150.948 39.3537C146.101 29.769 141.516 25.535 136.539 24.5679C131.588 23.606 126.346 25.9048 120.261 29.0843C119.224 29.6261 118.16 30.1946 117.067 30.779C105.291 37.0745 90.0872 45.2022 67.5818 41.4875C57.9157 39.8921 51.0566 36.6523 46.2761 32.399C41.4979 28.1477 38.7771 22.8664 37.4138 17.1505C35.2102 7.91096 36.5564 -2.44982 38.5064 -11.38L38.5454 -11.2594C38.5798 -10.878 38.6188 -10.4975 38.6626 -10.1181C37.7153 -3.33799 37.5029 3.80626 39.0764 10.4038C40.4636 16.22 43.2397 21.6168 48.1226 25.9613C53.0033 30.3039 59.9695 33.5779 69.7106 35.1857C92.4028 38.9312 107.755 30.722 119.534 24.4231C120.628 23.8381 121.691 23.2695 122.727 22.7286C128.838 19.5356 133.915 17.3429 138.652 18.2634C143.363 19.1788 147.835 23.2012 152.66 32.74L153.155 32.4772C148.307 22.8925 143.722 18.6585 138.745 17.6915C133.795 16.7295 128.553 19.0283 122.467 22.2078C121.433 22.7479 120.373 23.3146 119.284 23.897L119.277 23.9004L119.273 23.9025C107.497 30.198 92.2937 38.3257 69.7884 34.611C60.1223 33.0156 53.2631 29.7758 48.4827 25.5225C43.7044 21.2712 40.9836 15.9899 39.6203 10.274C38.3229 4.83412 38.256 -0.994423 38.8184 -6.69087C38.8804 -3.45805 39.2256 -0.251636 39.9618 2.83513C41.349 8.65135 44.1251 14.0482 49.008 18.3927C53.8887 22.7352 60.8549 26.0092 70.596 27.617C93.2882 31.3625 108.64 23.1533 120.419 16.8544C121.513 16.2694 122.577 15.7008 123.612 15.1599C129.723 11.967 134.8 9.77418 139.538 10.6947C144.249 11.6101 148.721 15.6325 153.545 25.1713L154.04 24.9085C149.193 15.3239 144.608 11.0898 139.631 10.1228C134.68 9.16086 129.438 11.4596 123.353 14.6391C122.318 15.1798 121.256 15.7471 120.166 16.3301L120.161 16.3328L120.159 16.3338C108.383 22.6293 93.1791 30.757 70.6738 27.0424C61.0077 25.4469 54.1485 22.2072 49.3681 17.9539C44.5898 13.7025 41.869 8.42121 40.5057 2.70535C39.8537 -0.028694 39.5124 -2.86091 39.4057 -5.72518C39.4348 -5.59707 39.4646 -5.46915 39.4951 -5.34145C40.8822 0.474774 43.6583 5.87157 48.5412 10.2161C53.422 14.5586 60.3881 17.8326 70.1292 19.4404C92.8214 23.1859 108.173 14.9767 119.953 8.6778L119.953 8.67737C121.047 8.09249 122.11 7.52411 123.145 6.98331C129.257 3.79037 134.334 1.5976 139.071 2.51811C143.782 3.4335 148.254 7.4559 153.078 16.9948L153.574 16.7319C148.726 7.14728 144.141 2.91325 139.164 1.94621C134.214 0.984267 128.971 3.28303 122.886 6.46252C121.849 7.00436 120.785 7.5729 119.692 8.15724C107.916 14.4528 92.7124 22.5804 70.207 18.8658C60.5409 17.2703 53.6817 14.0306 48.9013 9.77727C44.1231 5.5259 41.4022 0.244628 40.039 -5.47123C39.7672 -6.61085 39.5494 -7.76753 39.3801 -8.93648L39.381 -8.98304C40.9808 -5.08939 43.378 -1.49756 46.8254 1.56974C51.7062 5.9123 58.6723 9.18624 68.4134 10.7941C91.1056 14.5396 106.457 6.33036 118.237 0.0314639L118.238 0.0310266C119.331 -0.553849 120.394 -1.12223 121.429 -1.66303C127.541 -4.85597 132.618 -7.04874 137.355 -6.12823C142.066 -5.21284 146.538 -1.19044 151.363 8.34842L151.858 8.08556C147.01 -1.49906 142.425 -5.73309 137.448 -6.70014C132.498 -7.66207 127.256 -5.36331 121.17 -2.18382C120.133 -1.64198 119.069 -1.07344 117.976 -0.489096C106.2 5.80643 90.9966 13.9341 68.4912 10.2194C58.8251 8.62397 51.9659 5.38424 47.1855 1.13093C43.4583 -2.18531 40.9829 -6.1282 39.4273 -10.4152C39.4504 -10.9442 39.48 -11.473 39.5156 -12.0013L39.5424 -12.1666C39.557 -12.2557 39.5717 -12.3448 39.5864 -12.4339C40.8254 -10.6433 42.3001 -8.958 44.0435 -7.40687C48.9242 -3.0643 55.8904 0.209634 65.6315 1.81747C88.3237 5.56298 103.676 -2.64625 115.455 -8.94515C116.549 -9.53017 117.612 -10.0987 118.648 -10.6396C124.759 -13.8326 129.836 -16.0253 134.573 -15.1048C139.284 -14.1894 143.756 -10.1671 148.581 -0.628189L149.076 -0.891041C144.228 -10.4757 139.643 -14.7097 134.666 -15.6767C129.716 -16.6387 124.474 -14.3399 118.388 -11.1604C117.352 -10.619 116.289 -10.0509 115.197 -9.46697L115.196 -9.46676L115.194 -9.4657C103.418 -3.17019 88.2146 4.95749 65.7093 1.24282C56.0432 -0.352637 49.184 -3.59237 44.4036 -7.84568C42.5461 -9.49832 40.9996 -11.3066 39.7228 -13.2355C39.9223 -14.3813 40.1389 -15.5127 40.3672 -16.6249L40.3922 -16.6026C45.2729 -12.26 52.2391 -8.98609 61.9802 -7.37825C84.6724 -3.63274 100.024 -11.842 111.804 -18.1409C112.898 -18.7259 113.961 -19.2944 114.996 -19.8354C121.108 -23.0283 126.185 -25.2211 130.922 -24.3006C135.633 -23.3852 140.105 -19.3628 144.929 -9.82391L145.425 -10.0868C140.577 -19.6714 135.992 -23.9054 131.015 -24.8725C126.064 -25.8344 120.822 -23.5356 114.737 -20.3562C113.7 -19.8147 112.638 -19.2466 111.545 -18.6627L111.545 -18.6625L111.543 -18.6614C99.7668 -12.3659 84.5633 -4.23823 62.058 -7.9529C52.3919 -9.54836 45.5327 -12.7881 40.7523 -17.0414C40.6678 -17.1165 40.584 -17.192 40.5008 -17.2678C40.8438 -18.8965 41.2098 -20.4817 41.5818 -22.0084C45.8242 -19.6154 51.1047 -17.7905 57.6306 -16.7133C80.3228 -12.9678 95.6746 -21.177 107.454 -27.4759L107.455 -27.4764C108.549 -28.0612 109.611 -28.6296 110.647 -29.1704C116.758 -32.3634 121.835 -34.5561 126.572 -33.6356C131.283 -32.7202 135.755 -28.6978 140.58 -19.159L141.075 -19.4218C136.227 -29.0065 131.642 -33.2405 126.665 -34.2075C121.715 -35.1695 116.473 -32.8707 110.387 -29.6912C109.35 -29.1494 108.287 -28.5808 107.193 -27.9965C95.4172 -21.701 80.2137 -13.5733 57.7084 -17.288C51.1714 -18.3669 45.9181 -20.198 41.7234 -22.5859C41.8743 -23.1972 42.0258 -23.7986 42.1768 -24.3892L41.6348 -24.5483C41.4952 -24.002 41.355 -23.446 41.2151 -22.8811C41.1477 -22.9209 41.0807 -22.961 41.0139 -23.0011C41.6293 -26.1584 42.3517 -29.1783 43.0622 -31.9579L42.5202 -32.117C41.8236 -29.3916 41.1123 -26.4247 40.5012 -23.3159C40.1287 -23.5492 39.7653 -23.7872 39.4108 -24.0298C40.0934 -29.7627 41.3624 -35.3107 42.5954 -40.1344L42.0535 -40.2935C40.8411 -35.5506 39.5843 -30.0761 38.8886 -24.3948C38.2993 -24.8157 37.7355 -25.2496 37.1963 -25.6957C37.3497 -33.8236 39.1501 -42.0146 40.8796 -48.7808L40.3377 -48.9399C38.6407 -42.3009 36.8566 -34.2287 36.6462 -26.1623C36.5644 -26.2334 36.4833 -26.3048 36.4027 -26.3765C35.8014 -26.9114 35.2328 -27.4627 34.6953 -28.0291C33.5748 -38.1996 35.8938 -49.1353 38.0977 -57.7574L37.5557 -57.9165C35.4065 -49.5084 33.1176 -38.8012 34.0627 -28.7187C33.3929 -29.4742 32.7754 -30.2548 32.2071 -31.0577C32.0941 -31.466 31.9885 -31.8768 31.89 -32.2899C29.1588 -43.7414 31.8806 -56.9152 34.4464 -66.9531L33.9044 -67.1122C31.3623 -57.1667 28.6246 -44.0046 31.2748 -32.4643C29.513 -35.3078 28.3102 -38.3971 27.5404 -41.625C24.8092 -53.0765 27.531 -66.2503 30.0968 -76.2882L29.5548 -76.4473ZM39.3932 -17.5344C39.2389 -17.6854 39.0868 -17.8375 38.9371 -17.9907C38.9096 -17.185 38.8975 -16.3794 38.9027 -15.5753C39.0659 -16.2406 39.2299 -16.8941 39.3932 -17.5344ZM41.0724 -22.3014C40.8235 -21.2831 40.5766 -20.2373 40.3371 -19.1686C40.5085 -20.2591 40.6974 -21.3388 40.8991 -22.4037C40.9567 -22.3695 41.0145 -22.3354 41.0724 -22.3014ZM40.3848 -22.7155C40.0277 -22.9363 39.6786 -23.1614 39.3372 -23.3906C39.1672 -21.8603 39.0405 -20.3181 38.9688 -18.7745C39.1774 -18.5529 39.3908 -18.3335 39.6091 -18.1165C39.8342 -19.6735 40.097 -21.2102 40.3848 -22.7155ZM39.0469 -13.2433C39.0182 -13.288 38.9896 -13.3329 38.9611 -13.3778C38.9725 -13.1384 38.9855 -12.8993 39.0002 -12.6605C39.015 -12.8548 39.0306 -13.0491 39.0469 -13.2433ZM38.3636 -14.364C38.3681 -14.2045 38.3734 -14.045 38.3793 -13.8856L38.3502 -14.0054L38.3232 -14.1176C38.281 -14.2946 38.2401 -14.472 38.2004 -14.6499C38.2542 -14.5543 38.3086 -14.459 38.3636 -14.364ZM38.3978 -18.558C38.3553 -17.5581 38.3358 -16.5574 38.3427 -15.5585C38.1612 -15.9003 37.987 -16.2452 37.8199 -16.593C37.6466 -17.6135 37.512 -18.6444 37.4122 -19.6827C37.7283 -19.3019 38.0567 -18.9269 38.3978 -18.558ZM38.8123 -23.7508C38.6456 -22.2952 38.5169 -20.8275 38.4366 -19.3563C38.0494 -19.7919 37.6796 -20.2358 37.3266 -20.6876C37.2209 -22.1064 37.1775 -23.5366 37.187 -24.9702C37.7072 -24.5524 38.2487 -24.1457 38.8123 -23.7508ZM36.6314 -25.4276C36.4319 -25.5959 36.2356 -25.7659 36.0426 -25.9377C35.6148 -26.3183 35.2031 -26.7071 34.8071 -27.1035C34.973 -25.844 35.1938 -24.5979 35.4764 -23.371C35.8604 -22.7368 36.2718 -22.1145 36.712 -21.5054C36.6375 -22.8074 36.613 -24.1168 36.6314 -25.4276ZM36.782 -20.4704C36.4811 -20.8608 36.1923 -21.2569 35.9154 -21.6582C36.2167 -20.5944 36.5685 -19.5479 36.9753 -18.5227C36.8972 -19.1691 36.8331 -19.8186 36.782 -20.4704ZM34.1613 -27.7714C34.269 -26.8327 34.4058 -25.9003 34.5746 -24.9765C33.8196 -26.4292 33.1943 -27.9363 32.6834 -29.4847C33.1476 -28.9003 33.6399 -28.3288 34.1613 -27.7714ZM33.5207 23.4748C30.7511 11.8622 33.5146 -1.44426 36.0791 -11.4773L36.6211 -11.3181C34.0553 -1.28026 31.3334 11.8936 34.0646 23.3451C35.4279 29.0609 38.1487 34.3422 42.927 38.5936C47.7074 42.8469 54.5666 46.0866 64.2327 47.6821C86.738 51.3967 101.941 43.2691 113.718 36.9735C114.811 36.3892 115.874 35.8207 116.911 35.2788C122.997 32.0993 128.239 29.8006 133.19 30.7625C138.167 31.7295 142.751 35.9636 147.599 45.5482L147.104 45.8111C142.279 36.2722 137.808 32.2498 133.097 31.3344C128.359 30.4139 123.282 32.6067 117.171 35.7996C116.135 36.3406 115.072 36.9091 113.978 37.4941C102.199 43.793 86.8471 52.0022 64.1549 48.2567C54.4138 46.6489 47.4476 43.3749 42.5669 39.0324C37.684 34.6879 34.9079 29.2911 33.5207 23.4748ZM31.8483 -5.86595C29.2838 4.16705 26.5203 17.4735 29.2899 29.0862C30.6771 34.9024 33.4532 40.2992 38.3361 44.6437C43.2168 48.9862 50.183 52.2602 59.9241 53.868C82.6163 57.6135 97.9681 49.4043 109.747 43.1054C110.842 42.5204 111.905 41.9519 112.94 41.4109C119.052 38.218 124.129 36.0252 128.866 36.9457C133.577 37.8611 138.049 41.8835 142.873 51.4224L143.368 51.1595C138.521 41.5749 133.936 37.3409 128.959 36.3738C124.008 35.4119 118.766 37.7106 112.681 40.8901C111.647 41.4303 110.587 41.997 109.497 42.5793L109.491 42.5828L109.487 42.5849C97.7107 48.8804 82.5072 57.0081 60.0019 53.2934C50.3358 51.6979 43.4766 48.4582 38.6962 44.2049C33.918 39.9535 31.1971 34.6722 29.8339 28.9564C27.1027 17.5049 29.8245 4.33105 32.3903 -5.70683L31.8483 -5.86595ZM24.4499 34.2652C21.6803 22.6526 24.4438 9.34614 27.0083 -0.686861L27.5503 -0.527746C24.9845 9.51014 22.2627 22.684 24.9939 34.1355C26.3571 39.8513 29.078 45.1326 33.8562 49.384C38.6366 53.6373 45.4958 56.877 55.1619 58.4725C77.6672 62.1871 92.8707 54.0595 104.647 47.7639L104.649 47.7629L104.662 47.7561C105.75 47.1746 106.808 46.6086 107.841 46.0692C113.926 42.8897 119.168 40.591 124.119 41.5529C129.096 42.5199 133.681 46.754 138.528 56.3386L138.033 56.6015C133.209 47.0626 128.737 43.0402 124.026 42.1248C119.289 41.2043 114.212 43.3971 108.1 46.59C107.065 47.131 106.002 47.6995 104.908 48.2845C93.1281 54.5834 77.7763 62.7926 55.0841 59.0471C45.343 57.4393 38.3768 54.1653 33.4961 49.8228C28.6132 45.4783 25.8371 40.0815 24.4499 34.2652ZM21.8016 4.21733C19.2371 14.2503 16.4736 27.5568 19.2432 39.1694C20.6304 44.9857 23.4065 50.3825 28.2894 54.727C33.1701 59.0695 40.1363 62.3435 49.8773 63.9513C72.5696 67.6968 87.9214 59.4876 99.7008 53.1887C100.795 52.6037 101.858 52.0351 102.893 51.4942C109.005 48.3012 114.082 46.1085 118.819 47.029C123.53 47.9444 128.002 51.9668 132.826 61.5056L133.322 61.2428C128.474 51.6582 123.889 47.4241 118.912 46.4571C113.962 45.4952 108.72 47.7939 102.634 50.9734C101.599 51.5141 100.538 52.0814 99.4471 52.6644L99.4422 52.6671L99.4402 52.6681C87.664 58.9637 72.4605 67.0913 49.9551 63.3767C40.289 61.7812 33.4299 58.5415 28.6495 54.2882C23.8712 50.0368 21.1504 44.7555 19.7871 39.0396C17.0559 27.5881 19.7778 14.4143 22.3435 4.37644L21.8016 4.21733ZM13.8574 43.938C11.0878 32.3253 13.8513 19.0189 16.4158 8.9859L16.9578 9.14502C14.392 19.1829 11.6702 32.3567 14.4014 43.8082C15.7646 49.5241 18.4855 54.8054 23.2637 59.0567C28.0441 63.31 34.9033 66.5498 44.5694 68.1452C67.0747 71.8599 82.2782 63.7322 94.0545 57.4367L94.0564 57.4356L94.0614 57.433C95.152 56.85 96.2132 56.2827 97.2482 55.742C103.334 52.5625 108.576 50.2637 113.526 51.2257C118.503 52.1927 123.088 56.4267 127.936 66.0114L127.441 66.2742C122.616 56.7354 118.144 52.713 113.433 51.7976C108.696 50.8771 103.619 53.0698 97.5076 56.2628C96.4722 56.8037 95.409 57.3722 94.315 57.9573C82.5356 64.2562 67.1838 72.4654 44.4916 68.7199C34.7505 67.112 27.7843 63.8381 22.9036 59.4955C18.0207 55.151 15.2446 49.7542 13.8574 43.938ZM11.0024 13.731C8.43789 23.764 5.67437 37.0704 8.44401 48.6831C9.83118 54.4993 12.6073 59.8961 17.4902 64.2406C22.3709 68.5832 29.3371 71.8571 39.0782 73.465C61.7704 77.2105 77.1222 69.0013 88.9016 62.7024C89.9956 62.1173 91.0588 61.5488 92.0942 61.0079C98.2056 57.8149 103.283 55.6222 108.02 56.5427C112.731 57.4581 117.203 61.4804 122.027 71.0193L122.522 70.7565C117.675 61.1718 113.09 56.9378 108.113 55.9708C103.162 55.0088 97.9204 57.3076 91.8347 60.4871C90.7998 61.0278 89.7386 61.5951 88.6479 62.1781L88.643 62.1807L88.6411 62.1818C76.8648 68.4773 61.6613 76.605 39.156 72.8903C29.4899 71.2949 22.6307 68.0551 17.8503 63.8018C13.072 59.5505 10.3512 54.2692 8.98794 48.5533C6.25675 37.1018 8.97857 23.928 11.5444 13.8901L11.0024 13.731ZM3.10967 53.4909C0.34004 41.8782 3.10355 28.5718 5.66809 18.5388L6.21002 18.6979C3.64424 28.7358 0.922413 41.9096 3.6536 53.3611C5.01684 59.077 7.7377 64.3583 12.5159 68.6096C17.2964 72.8629 24.1555 76.1027 33.8216 77.6981C56.327 81.4128 71.5304 73.2851 83.3067 66.9896L83.3081 66.9889L83.3102 66.9877L83.3131 66.9862C84.4039 66.4031 85.4653 65.8357 86.5004 65.2949C92.5861 62.1154 97.8281 59.8166 102.779 60.7786C107.755 61.7456 112.34 65.9796 117.188 75.5643L116.693 75.8271C111.868 66.2882 107.397 62.2659 102.686 61.3505C97.9483 60.43 92.8713 62.6227 86.7599 65.8157C85.7245 66.3566 84.6613 66.9252 83.5672 67.5102C71.7879 73.8091 56.436 82.0183 33.7438 78.2728C24.0028 76.6649 17.0366 73.391 12.1559 69.0484C7.27295 64.7039 4.49685 59.3071 3.10967 53.4909ZM0.496761 23.4706C-2.06777 33.5036 -4.83128 46.81 -2.06165 58.4227C-0.674476 64.2389 2.10162 69.6357 6.98453 73.9802C11.8653 78.3228 18.8314 81.5967 28.5725 83.2046C51.2647 86.9501 66.6165 78.7409 78.3959 72.442C79.4899 71.8569 80.5531 71.2884 81.5885 70.7475C87.7 67.5545 92.777 65.3618 97.5143 66.2823C102.225 67.1977 106.697 71.2201 111.522 80.7589L112.017 80.4961C107.169 70.9114 102.584 66.6774 97.6073 65.7104C92.6568 64.7484 87.4148 67.0472 81.3291 70.2267C80.294 70.7675 79.2326 71.3349 78.1417 71.918L78.1389 71.9195L78.1368 71.9207L78.1354 71.9214C66.3591 78.2169 51.1556 86.3446 28.6503 82.6299C18.9842 81.0345 12.125 77.7947 7.34462 73.5414C2.56638 69.2901 -0.154482 64.0088 -1.51772 58.2929C-4.24891 46.8414 -1.52709 33.6676 1.0387 23.6297L0.496761 23.4706ZM-7.01031 63.5199C-9.77994 51.9073 -7.01643 38.6008 -4.4519 28.5678L-3.90996 28.7269C-6.47575 38.7648 -9.19757 51.9386 -6.46638 63.3901C-5.10314 69.106 -2.38228 74.3873 2.39596 78.6387C7.17637 82.892 14.0355 86.1317 23.7016 87.7272C46.207 91.4418 61.4105 83.3141 73.1867 77.0186L73.1881 77.0179L73.1903 77.0167C74.2821 76.4331 75.3444 75.8652 76.3804 75.3239C82.4661 72.1444 87.7081 69.8456 92.6587 70.8076C97.6355 71.7746 102.22 76.0087 107.068 85.5933L106.573 85.8561C101.748 76.3173 97.2766 72.2949 92.5656 71.3795C87.8283 70.459 82.7513 72.6518 76.6399 75.8447C75.6045 76.3856 74.5413 76.9542 73.4473 77.5392C61.6679 83.8381 46.3161 92.0473 23.6238 88.3018C13.8828 86.694 6.9166 83.42 2.03587 79.0775C-2.84704 74.733 -5.62314 69.3362 -7.01031 63.5199ZM-9.14006 33.8576C-11.7046 43.8906 -14.4681 57.197 -11.6985 68.8097C-10.3113 74.6259 -7.5352 80.0227 -2.65229 84.3672C2.22844 88.7098 9.19461 91.9837 18.9357 93.5916C41.6279 97.3371 56.9797 89.1279 68.7591 82.829C69.8531 82.244 70.9163 81.6754 71.9517 81.1345C78.0632 77.9415 83.1401 75.7488 87.8775 76.6693C92.5885 77.5847 97.0602 81.6071 101.885 91.1459L102.38 90.8831C97.5323 81.2984 92.9474 77.0644 87.9705 76.0974C83.02 75.1354 77.7779 77.4342 71.6923 80.6137C70.6556 81.1553 69.5925 81.7236 68.5 82.3077L68.4986 82.3084C56.7223 88.6039 41.5188 96.7316 19.0135 93.0169C9.34738 91.4215 2.48821 88.1817 -2.2922 83.9284C-7.07044 79.6771 -9.7913 74.3958 -11.1545 68.6799C-13.8857 57.2284 -11.1639 44.0546 -8.59812 34.0167L-9.14006 33.8576Z" fill="url(#paint0_radial_65_595)" fill-opacity="0.2"/>
<defs>
<radialGradient id="paint0_radial_65_595" cx="0" cy="0" r="1" gradientUnits="userSpaceOnUse" gradientTransform="translate(56.8244 35.4953) rotate(19.0044) scale(82.8853 88.0507)">
<stop stop-color="white"/>
<stop offset="1" stop-color="#1E1E1E" stop-opacity="0"/>
<stop offset="1" stop-color="#0E0E35" stop-opacity="0"/>
<stop offset="1" stop-color="white" stop-opacity="0"/>
</radialGradient>
</defs>
</svg>
